<svg xmlns="http://www.w3.org/2000/svg" width="22" height="22" viewBox="0 0 22 22">
  <metadata><?xpacket begin="﻿" id="W5M0MpCehiHzreSzNTczkc9d"?>
<x:xmpmeta xmlns:x="adobe:ns:meta/" x:xmptk="Adobe XMP Core 5.6-c138 79.159824, 2016/09/14-01:09:01        ">
   <rdf:RDF xmlns:rdf="http://www.w3.org/1999/02/22-rdf-syntax-ns#">
      <rdf:Description rdf:about=""/>
   </rdf:RDF>
</x:xmpmeta>
                                                                                                    
                                                                                                    
                                                                                                    
                                                                                                    
                                                                                                    
                                                                                                    
                                                                                                    
                                                                                                    
                                                                                                    
                                                                                                    
                                                                                                    
                                                                                                    
                                                                                                    
                                                                                                    
                                                                                                    
                                                                                                    
                                                                                                    
                                                                                                    
                                                                                                    
                                                                                                    
                           
<?xpacket end="w"?></metadata>
<defs>
    <style>
      .cls-1 {
        fill: #b5c4c9;
        fill-rule: evenodd;
      }
    </style>
  </defs>
  <path id="Complaints_24" data-name="Complaints@24" class="cls-1" d="M16.937,1.435L8.143,9.753a0.869,0.869,0,0,0-.263.581L7.821,14.584a0.813,0.813,0,0,0,.263.609,0.96,0.96,0,0,0,.615.277H8.713l4.346-.083a0.929,0.929,0,0,0,.615-0.277l8.868-8.387a0.812,0.812,0,0,0,0-1.176L18.2,1.435A0.948,0.948,0,0,0,16.937,1.435ZM12.664,13.7l-3.073.041,0.044-3.045,4.478-4.235L17.2,9.421Zm5.78-5.467L15.357,5.269l2.2-2.076,3.1,2.934ZM8.7,15.665a1.156,1.156,0,0,1-.758-0.331,1,1,0,0,1-.327-0.75l0.059-4.261A1.063,1.063,0,0,1,8,9.615L16.791,1.3a1.159,1.159,0,0,1,1.544-.006L18.341,1.3l4.346,4.111a1,1,0,0,1,0,1.453L13.82,15.248a1.126,1.126,0,0,1-.761.334ZM8.086,10.342L8.027,14.586a0.625,0.625,0,0,0,.2.463L8.23,15.054a0.751,0.751,0,0,0,.469.22H8.713l4.342-.083a0.721,0.721,0,0,0,.473-0.22L22.4,6.584a0.624,0.624,0,0,0,0-.9l-4.34-4.1a0.73,0.73,0,0,0-.969,0h0L8.289,9.891A0.681,0.681,0,0,0,8.086,10.342Zm1.3,3.6L9.43,10.612l4.684-4.43,3.378,3.24-4.741,4.47Zm0.459-3.161L9.8,13.541l2.777-.038L16.909,9.42l-2.8-2.683Zm8.6-2.268L15.066,5.268l2.486-2.351,3.394,3.21Zm-2.8-3.239,2.8,2.683,1.917-1.825L17.552,3.469ZM10.864,3.844a0.858,0.858,0,0,0,.878-0.83,0.858,0.858,0,0,0-.878-0.83H2.085a0.858,0.858,0,0,0-.878.83V21.974a0.858,0.858,0,0,0,.878.83H18.473a0.858,0.858,0,0,0,.878-0.83V14.224a0.879,0.879,0,0,0-1.756,0v6.92H2.963V3.844h7.9ZM18.473,23H2.085A1.058,1.058,0,0,1,1,21.974V3.013A1.058,1.058,0,0,1,2.085,1.987h8.78a1.058,1.058,0,0,1,1.085,1.026,1.058,1.058,0,0,1-1.085,1.026h-7.7V20.948h14.22V14.224a1.086,1.086,0,0,1,2.169,0v7.751A1.058,1.058,0,0,1,18.473,23ZM2.085,2.378a0.655,0.655,0,0,0-.671.635V21.974a0.655,0.655,0,0,0,.671.635H18.473a0.655,0.655,0,0,0,.671-0.635V14.224a0.672,0.672,0,0,0-1.343,0v7.116H2.756V3.648h8.108a0.655,0.655,0,0,0,.671-0.635,0.655,0.655,0,0,0-.671-0.635H2.085Z" transform="translate(-1 -1)"/>
</svg>
