<svg xmlns="http://www.w3.org/2000/svg" width="24" height="22" viewBox="0 0 24 22">
  <metadata><?xpacket begin="﻿" id="W5M0MpCehiHzreSzNTczkc9d"?>
<x:xmpmeta xmlns:x="adobe:ns:meta/" x:xmptk="Adobe XMP Core 5.6-c138 79.159824, 2016/09/14-01:09:01        ">
   <rdf:RDF xmlns:rdf="http://www.w3.org/1999/02/22-rdf-syntax-ns#">
      <rdf:Description rdf:about=""/>
   </rdf:RDF>
</x:xmpmeta>
                                                                                                    
                                                                                                    
                                                                                                    
                                                                                                    
                                                                                                    
                                                                                                    
                                                                                                    
                                                                                                    
                                                                                                    
                                                                                                    
                                                                                                    
                                                                                                    
                                                                                                    
                                                                                                    
                                                                                                    
                                                                                                    
                                                                                                    
                                                                                                    
                                                                                                    
                                                                                                    
                           
<?xpacket end="w"?></metadata>
<defs>
    <style>
      .cls-1 {
        fill: #b4c5cc;
        fill-rule: evenodd;
      }
    </style>
  </defs>
  <path id="Customer_24" data-name="Customer@24" class="cls-1" d="M0.873,22.347a0.319,0.319,0,0,0,.389-0.229C1.917,19.63,4.579,18.985,6.17,18.6a6.32,6.32,0,0,0,.918-0.263,4.09,4.09,0,0,0,2.579-3.029A0.327,0.327,0,0,0,9.562,15,8.4,8.4,0,0,1,7.32,11.5a0.319,0.319,0,0,0-.065-0.111A3.5,3.5,0,0,1,6.209,9.252a0.836,0.836,0,0,1,.436-0.788A0.325,0.325,0,0,0,6.8,8.2C6.94,4.9,9.247,2.307,12.076,2.29l0.068,0c2.843,0.04,5.135,2.692,5.217,6.036a0.325,0.325,0,0,0,.113.239,0.839,0.839,0,0,1,.292.684A3.159,3.159,0,0,1,17,11.048a0.34,0.34,0,0,0-.053.1,8.442,8.442,0,0,1-2.5,3.978,0.328,0.328,0,0,0-.113.313,4.092,4.092,0,0,0,2.579,3.029,5.891,5.891,0,0,0,.968.261c1.575,0.347,4.21.929,4.857,3.387a0.319,0.319,0,0,0,.306.239,0.334,0.334,0,0,0,.083-0.011,0.325,0.325,0,0,0,.225-0.4c-0.747-2.84-3.733-3.5-5.336-3.852a5.824,5.824,0,0,1-.849-0.223A3.5,3.5,0,0,1,15,15.5a9.209,9.209,0,0,0,2.542-4.1A3.748,3.748,0,0,0,18.4,9.253a1.493,1.493,0,0,0-.409-1.077c-0.151-3.628-2.694-6.484-5.849-6.53H12.049c-3.1.017-5.652,2.8-5.875,6.363a1.472,1.472,0,0,0-.6,1.245,4.081,4.081,0,0,0,1.17,2.522,9.148,9.148,0,0,0,2.261,3.588,3.5,3.5,0,0,1-2.171,2.38,6.17,6.17,0,0,1-.812.228C4.407,18.362,1.4,19.091.648,21.951A0.324,0.324,0,0,0,.873,22.347ZM23.044,23a0.958,0.958,0,0,1-.92-0.717c-0.547-2.081-2.852-2.588-4.377-2.924a6.209,6.209,0,0,1-1.086-.3,4.715,4.715,0,0,1-2.952-3.5,0.982,0.982,0,0,1,.338-0.938,7.786,7.786,0,0,0,2.3-3.669,0.993,0.993,0,0,1,.16-0.307,2.584,2.584,0,0,0,.628-1.4,0.2,0.2,0,0,0-.067-0.19,0.976,0.976,0,0,1-.338-0.715c-0.073-3-2.089-5.371-4.59-5.406l-0.068,0C9.6,2.952,7.561,5.276,7.435,8.228a0.97,0.97,0,0,1-.463.792,0.2,0.2,0,0,0-.127.232,2.9,2.9,0,0,0,.878,1.694,0.971,0.971,0,0,1,.2.336,7.74,7.74,0,0,0,2.057,3.229,0.985,0.985,0,0,1,.314.92,4.709,4.709,0,0,1-2.95,3.5,6.57,6.57,0,0,1-1.024.3C4.77,19.6,2.433,20.17,1.876,22.285a0.958,0.958,0,0,1-1.156.69l-0.013,0a0.976,0.976,0,0,1-.673-1.187c0.851-3.234,4.222-4.051,5.842-4.443a6.949,6.949,0,0,0,.706-0.192,2.97,2.97,0,0,0,1.7-1.6,10.036,10.036,0,0,1-2.091-3.436A4.59,4.59,0,0,1,4.939,9.253,2.133,2.133,0,0,1,5.562,7.69C5.921,3.933,8.723,1.015,12.046,1h0.107c3.4,0.05,6.2,3.072,6.464,6.923a2.188,2.188,0,0,1,.423,1.332A4.33,4.33,0,0,1,18.11,11.7a10.154,10.154,0,0,1-2.383,4,2.986,2.986,0,0,0,1.692,1.582,6.883,6.883,0,0,0,.727.183c1.616,0.356,4.971,1.1,5.819,4.318a0.976,0.976,0,0,1-.672,1.189A1,1,0,0,1,23.044,23Zm-22.4-1.055v0Z" transform="translate(0 -1)"/>
</svg>
