<svg xmlns="http://www.w3.org/2000/svg" width="24" height="21" viewBox="0 0 24 21">
  <metadata><?xpacket begin="﻿" id="W5M0MpCehiHzreSzNTczkc9d"?>
<x:xmpmeta xmlns:x="adobe:ns:meta/" x:xmptk="Adobe XMP Core 5.6-c138 79.159824, 2016/09/14-01:09:01        ">
   <rdf:RDF xmlns:rdf="http://www.w3.org/1999/02/22-rdf-syntax-ns#">
      <rdf:Description rdf:about=""/>
   </rdf:RDF>
</x:xmpmeta>
                                                                                                    
                                                                                                    
                                                                                                    
                                                                                                    
                                                                                                    
                                                                                                    
                                                                                                    
                                                                                                    
                                                                                                    
                                                                                                    
                                                                                                    
                                                                                                    
                                                                                                    
                                                                                                    
                                                                                                    
                                                                                                    
                                                                                                    
                                                                                                    
                                                                                                    
                                                                                                    
                           
<?xpacket end="w"?></metadata>
<defs>
    <style>
      .cls-1 {
        fill: #b4c5cc;
        fill-rule: evenodd;
      }
    </style>
  </defs>
  <path id="Distributor_24" data-name="Distributor@24" class="cls-1" d="M8.306,15.662A1.994,1.994,0,0,0,7.592,17.2v2.133a0.472,0.472,0,1,0,.943,0V17.2a1.028,1.028,0,0,1,.371-0.8A23.91,23.91,0,0,1,13.2,13.615a0.614,0.614,0,0,0,.343-0.554v-3a0.479,0.479,0,0,0-.21-0.395,0.928,0.928,0,0,1-.41-0.77V5.775a2.32,2.32,0,0,1,2.305-2.331h0.662a2.32,2.32,0,0,1,2.305,2.331V8.891a0.928,0.928,0,0,1-.41.77,0.468,0.468,0,0,0-.21.395v3a0.614,0.614,0,0,0,.343.554,23.749,23.749,0,0,1,4.291,2.783,1.044,1.044,0,0,1,.372.8v2.133a0.472,0.472,0,1,0,.943,0V17.193a2,2,0,0,0-.714-1.536,25.009,25.009,0,0,0-4.291-2.812V10.283a1.9,1.9,0,0,0,.619-1.4V5.766a3.27,3.27,0,0,0-3.248-3.284H15.227a3.27,3.27,0,0,0-3.248,3.284V8.881a1.9,1.9,0,0,0,.619,1.4v2.562A25.307,25.307,0,0,0,8.306,15.662ZM8.063,20.289a0.954,0.954,0,0,1-.948-0.958V17.2A2.469,2.469,0,0,1,8,15.29H8a25.6,25.6,0,0,1,4.117-2.737v-2.07a2.387,2.387,0,0,1-.619-1.6V5.766A3.75,3.75,0,0,1,15.227,2h0.662a3.75,3.75,0,0,1,3.725,3.766V8.881a2.387,2.387,0,0,1-.619,1.6v2.069a25.463,25.463,0,0,1,4.118,2.733A2.486,2.486,0,0,1,24,17.193v2.133a0.948,0.948,0,1,1-1.9,0V17.193a0.563,0.563,0,0,0-.2-0.43,23.139,23.139,0,0,0-4.195-2.72,1.1,1.1,0,0,1-.61-0.987v-3a0.948,0.948,0,0,1,.424-0.8,0.446,0.446,0,0,0,.2-0.368V5.775a1.841,1.841,0,0,0-1.829-1.849H15.227A1.841,1.841,0,0,0,13.4,5.775V8.891a0.446,0.446,0,0,0,.2.37,0.957,0.957,0,0,1,.422.8v3a1.1,1.1,0,0,1-.611.987,23.374,23.374,0,0,0-4.2,2.722,0.544,0.544,0,0,0-.2.427v2.133A0.954,0.954,0,0,1,8.063,20.289ZM6.837,4.489h-0.5A2.558,2.558,0,0,0,3.8,7.057V9.416a1.51,1.51,0,0,0,.469,1.1v1.853a18.943,18.943,0,0,0-3.218,2.112A1.583,1.583,0,0,0,.476,15.7v1.616a0.438,0.438,0,1,0,.876,0V15.7a0.707,0.707,0,0,1,.252-0.541,18.009,18.009,0,0,1,3.236-2.1,0.551,0.551,0,0,0,.305-0.492V10.3a0.446,0.446,0,0,0-.195-0.367,0.62,0.62,0,0,1-.274-0.515V7.057A1.677,1.677,0,0,1,6.341,5.375h0.5A1.677,1.677,0,0,1,8.506,7.057V9.416a0.62,0.62,0,0,1-.274.515,0.435,0.435,0,0,0-.195.367v1.866a0.438,0.438,0,1,0,.876,0V10.512a1.51,1.51,0,0,0,.469-1.1V7.057A2.562,2.562,0,0,0,6.837,4.489ZM0.915,18.244A0.921,0.921,0,0,1,0,17.319V15.7a2.065,2.065,0,0,1,.746-1.6,19.331,19.331,0,0,1,3.043-2.031V10.7A2.008,2.008,0,0,1,3.32,9.416V7.057a3.037,3.037,0,0,1,3.017-3.05h0.5A3.045,3.045,0,0,1,9.859,7.056v2.36A2.008,2.008,0,0,1,9.389,10.7v1.46a0.915,0.915,0,1,1-1.829,0V10.3a0.915,0.915,0,0,1,.409-0.769A0.136,0.136,0,0,0,8.03,9.416V7.057a1.2,1.2,0,0,0-1.188-1.2h-0.5a1.2,1.2,0,0,0-1.188,1.2V9.416a0.136,0.136,0,0,0,.062.114,0.924,0.924,0,0,1,.407.768v2.274a1.032,1.032,0,0,1-.574.925,17.406,17.406,0,0,0-3.142,2.038,0.223,0.223,0,0,0-.078.169v1.616A0.921,0.921,0,0,1,.915,18.244Zm15.5-4.013a0.4,0.4,0,0,0-.4.4,0.464,0.464,0,0,1-.461.466,0.43,0.43,0,0,1-.257-0.081,0.3,0.3,0,0,0-.056-0.044,0.464,0.464,0,0,1-.148-0.345,0.4,0.4,0,1,0-.794,0,1.281,1.281,0,0,0,.317.843l-0.269,5.983a0.408,0.408,0,0,0,.132.316l0.838,0.762a0.4,0.4,0,0,0,.265.105,0.388,0.388,0,0,0,.265-0.1l0.826-.75a0.407,0.407,0,0,0,.132-0.316l-0.257-6.056a1.26,1.26,0,0,0,.269-0.778A0.416,0.416,0,0,0,16.419,14.231ZM15.585,21.7l-0.433-.393L15.393,15.9a1.068,1.068,0,0,0,.16.012,1.3,1.3,0,0,0,.217-0.02L16,21.321Zm0,1.3a0.75,0.75,0,0,1-.5-0.2l-0.839-.763a0.775,0.775,0,0,1-.251-0.6L14.26,15.59a1.65,1.65,0,0,1-.311-0.962,0.754,0.754,0,1,1,1.508,0,0.1,0.1,0,0,0,.021.065c0.016,0.011.031,0.024,0.046,0.037a0.09,0.09,0,0,0,.038.007,0.1,0.1,0,0,0,.1-0.105,0.759,0.759,0,0,1,.754-0.762,0.778,0.778,0,0,1,.762.753v0.013a1.634,1.634,0,0,1-.264.888l0.251,5.932a0.775,0.775,0,0,1-.249.6l-0.828.751A0.738,0.738,0,0,1,15.589,23ZM14.7,14.588a0.038,0.038,0,0,0-.04.04,0.915,0.915,0,0,0,.228.605l0.095,0.109-0.275,6.128a0.044,0.044,0,0,0,.016.033l0.837,0.761a0.048,0.048,0,0,0,.026.013,0.033,0.033,0,0,0,.026-0.009l0.826-.75a0.044,0.044,0,0,0,.014-0.036L16.193,15.3l0.083-.105a0.9,0.9,0,0,0,.191-0.545,0.058,0.058,0,0,0-.048-0.053,0.038,0.038,0,0,0-.04.04,0.824,0.824,0,0,1-.818.827A0.783,0.783,0,0,1,15.1,15.31l-0.023-.017-0.015-.015-0.023-.014-0.027-.024a0.822,0.822,0,0,1-.265-0.611A0.038,0.038,0,0,0,14.7,14.588Zm0.348,0.684h0Zm0.534,6.916-0.8-.725,0.266-5.984,0.393,0.061a0.708,0.708,0,0,0,.106.008,0.969,0.969,0,0,0,.158-0.015l0.4-.067,0.257,6.009Zm-0.069-1.034,0.068,0.062,0.054-.049-0.06-1.4Z" transform="translate(0 -2)"/>
</svg>
