<svg xmlns="http://www.w3.org/2000/svg" width="24" height="23" viewBox="0 0 24 23">
  <metadata><?xpacket begin="﻿" id="W5M0MpCehiHzreSzNTczkc9d"?>
<x:xmpmeta xmlns:x="adobe:ns:meta/" x:xmptk="Adobe XMP Core 5.6-c138 79.159824, 2016/09/14-01:09:01        ">
   <rdf:RDF xmlns:rdf="http://www.w3.org/1999/02/22-rdf-syntax-ns#">
      <rdf:Description rdf:about=""/>
   </rdf:RDF>
</x:xmpmeta>
                                                                                                    
                                                                                                    
                                                                                                    
                                                                                                    
                                                                                                    
                                                                                                    
                                                                                                    
                                                                                                    
                                                                                                    
                                                                                                    
                                                                                                    
                                                                                                    
                                                                                                    
                                                                                                    
                                                                                                    
                                                                                                    
                                                                                                    
                                                                                                    
                                                                                                    
                                                                                                    
                           
<?xpacket end="w"?></metadata>
<defs>
    <style>
      .cls-1 {
        fill: #b5c4c9;
        fill-rule: evenodd;
      }
    </style>
  </defs>
  <path id="Home_24" data-name="Home@24" class="cls-1" d="M23.408,10.824L12.527,1.506a0.814,0.814,0,0,0-1.055,0L0.592,10.824a0.77,0.77,0,0,0-.074,1.1A0.813,0.813,0,0,0,1.647,12l0.842-.721V22.906a0.791,0.791,0,0,0,.8.782H20.711a0.791,0.791,0,0,0,.8-0.782V11.279L22.353,12a0.813,0.813,0,0,0,1.129-.073A0.769,0.769,0,0,0,23.408,10.824Zm-13.255,11.3v-6.44h3.695v6.44H10.153Zm9.758-12.21v12.21H15.448V14.9a0.791,0.791,0,0,0-.8-0.782h-5.3a0.791,0.791,0,0,0-.8.782v7.222H4.089V9.914s0,0,0-.006L12,3.133l7.911,6.775S19.911,9.912,19.911,9.914ZM20.711,24H3.289a1.109,1.109,0,0,1-1.12-1.094V11.968l-0.312.267a1.138,1.138,0,0,1-1.581-.1,1.078,1.078,0,0,1,.1-1.544L11.262,1.27a1.144,1.144,0,0,1,1.477,0l10.881,9.319a1.078,1.078,0,0,1,.1,1.545,1.138,1.138,0,0,1-1.581.1l-0.312-.267V22.906A1.109,1.109,0,0,1,20.711,24ZM2.809,10.589V22.906a0.475,0.475,0,0,0,.48.469H20.711a0.475,0.475,0,0,0,.48-0.469V10.589l1.374,1.176a0.488,0.488,0,0,0,.677-0.044,0.462,0.462,0,0,0-.044-0.662L12.317,1.741a0.49,0.49,0,0,0-.633,0L0.8,11.059a0.462,0.462,0,0,0-.045.662,0.488,0.488,0,0,0,.677.043ZM14.168,22.437H9.833V15.371h4.335v7.065Zm-3.695-.625h3.055V16H10.473v5.814Zm-1.6.625h-5.1V9.767L12,2.717l8.227,7.046,0,0.152V22.437h-5.1V14.9a0.475,0.475,0,0,0-.48-0.469h-5.3a0.475,0.475,0,0,0-.48.469v7.534Zm-4.463-.625H8.233V14.9a1.109,1.109,0,0,1,1.12-1.094h5.3a1.109,1.109,0,0,1,1.12,1.095v6.909h3.823V10.05L12,3.549l-7.591,6.5V21.811Zm5.8-13.174a0.791,0.791,0,0,0,.8.782h1.984a0.782,0.782,0,1,0,0-1.564H11.008A0.791,0.791,0,0,0,10.208,8.637Zm2.784,1.094H11.008a1.095,1.095,0,1,1,0-2.189h1.984A1.095,1.095,0,1,1,12.992,9.731ZM11.008,8.168a0.469,0.469,0,1,0,0,.938h1.984a0.469,0.469,0,1,0,0-.938H11.008Z" transform="translate(0 -1)"/>
</svg>
