<svg xmlns="http://www.w3.org/2000/svg" width="24" height="23" viewBox="0 0 24 23">
  <metadata><?xpacket begin="﻿" id="W5M0MpCehiHzreSzNTczkc9d"?>
<x:xmpmeta xmlns:x="adobe:ns:meta/" x:xmptk="Adobe XMP Core 5.6-c138 79.159824, 2016/09/14-01:09:01        ">
   <rdf:RDF xmlns:rdf="http://www.w3.org/1999/02/22-rdf-syntax-ns#">
      <rdf:Description rdf:about=""/>
   </rdf:RDF>
</x:xmpmeta>
                                                                                                    
                                                                                                    
                                                                                                    
                                                                                                    
                                                                                                    
                                                                                                    
                                                                                                    
                                                                                                    
                                                                                                    
                                                                                                    
                                                                                                    
                                                                                                    
                                                                                                    
                                                                                                    
                                                                                                    
                                                                                                    
                                                                                                    
                                                                                                    
                                                                                                    
                                                                                                    
                           
<?xpacket end="w"?></metadata>
<defs>
    <style>
      .cls-1 {
        fill: #b4c5cc;
        fill-rule: evenodd;
      }
    </style>
  </defs>
  <path id="Rating_24" data-name="Rating@24" class="cls-1" d="M23.68,9.762a0.654,0.654,0,0,0-.524-0.443L15.848,8.278,12.56,1.651a0.652,0.652,0,0,0-.582-0.361h0a0.647,0.647,0,0,0-.582.366L8.151,8.3,0.843,9.391a0.654,0.654,0,0,0-.524.443,0.645,0.645,0,0,0,.168.665l5.3,5.152-1.226,7.3a0.653,0.653,0,0,0,.639.761,0.616,0.616,0,0,0,.3-0.077l6.524-3.465L18.574,23.6a0.663,0.663,0,0,0,.3.072h0a0.653,0.653,0,0,0,.649-0.651,0.51,0.51,0,0,0-.019-0.149l-1.264-7.254,5.269-5.181A0.638,0.638,0,0,0,23.68,9.762Zm-6.587,5.162a0.644,0.644,0,0,0-.183.578l1.1,6.328-5.683-2.974a0.656,0.656,0,0,0-.606,0L6.059,21.865l1.063-6.338a0.651,0.651,0,0,0-.187-0.573l-4.6-4.473L8.68,9.536a0.644,0.644,0,0,0,.486-0.357L11.983,3.41l2.856,5.755a0.66,0.66,0,0,0,.49.357l6.346,0.906ZM5.2,24a0.942,0.942,0,0,1-.923-1.1l1.2-7.145L0.286,10.707A0.937,0.937,0,0,1,.8,9.106l7.16-1.067,3.179-6.51a0.935,0.935,0,0,1,1.681-.007l3.221,6.492L23.2,9.033a0.937,0.937,0,0,1,.509,1.609l-5.158,5.072L19.784,22.8a0.8,0.8,0,0,1,.026.214,0.938,0.938,0,0,1-1.365.837l0,0L12.032,20.5l-6.39,3.394A0.9,0.9,0,0,1,5.2,24ZM11.978,1.578a0.358,0.358,0,0,0-.323.2L8.343,8.566,0.885,9.677a0.366,0.366,0,0,0-.292.247,0.354,0.354,0,0,0,.092.365L6.1,15.55,4.849,23a0.365,0.365,0,0,0,.355.424,0.327,0.327,0,0,0,.164-0.041l6.662-3.539,6.675,3.5a0.374,0.374,0,0,0,.167.041,0.366,0.366,0,0,0,.361-0.361,0.233,0.233,0,0,0-.007-0.066l-0.008-.033-1.291-7.4,5.384-5.294a0.349,0.349,0,0,0,.095-0.368h0A0.366,0.366,0,0,0,23.111,9.6L15.657,8.543,12.3,1.779A0.365,0.365,0,0,0,11.978,1.578Zm-6.3,20.816,1.159-6.916a0.36,0.36,0,0,0-.1-0.318l-5.015-4.88L8.637,9.25A0.356,0.356,0,0,0,8.9,9.055l3.076-6.3L15.1,9.036a0.37,0.37,0,0,0,.277.2l6.921,0.988-5,4.908a0.355,0.355,0,0,0-.1.319l1.2,6.908-6.2-3.245a0.37,0.37,0,0,0-.341,0ZM2.958,10.681l4.177,4.065a0.946,0.946,0,0,1,.271.827L6.441,21.335,11.594,18.6a0.945,0.945,0,0,1,.872,0l5.161,2.7-1-5.751a0.932,0.932,0,0,1,.265-0.835l4.163-4.086-5.767-.823a0.955,0.955,0,0,1-.708-0.514l-2.6-5.231L9.424,9.306a0.933,0.933,0,0,1-.7.515Z" transform="translate(0 -1)"/>
</svg>
