<svg xmlns="http://www.w3.org/2000/svg" width="16.298" height="21.299" fill="currentColor" viewBox="0 0 16.298 21.299">
  <g id="_1781333" data-name="1781333" transform="translate(-119.85 -159.85)">
    <path id="Intersection_1" data-name="Intersection 1" d="M.525,21A.525.525,0,0,1,0,20.474V17.1a3.689,3.689,0,0,1,2.705-3.545l3.069-.835V12.1A4.725,4.725,0,0,1,3.15,7.875V7.349a.525.525,0,0,1-.525-.525V6.3H2.615V5.25h.011a5.25,5.25,0,0,1,10.5,0h.005V6.3l0,0h-.007v.525a.525.525,0,0,1-.526.525v.526A4.725,4.725,0,0,1,9.975,12.1v.623l3.067.834A3.691,3.691,0,0,1,15.749,17.1v.745h.021l-.021.02v1.022l0,.008h0v1.575a.525.525,0,0,1-.525.525Zm11.6-3.675v2.625H14.7V17.1a2.641,2.641,0,0,0-1.936-2.532l-.689-.187a12.036,12.036,0,0,0-8.4,0l-.691.186A2.636,2.636,0,0,0,1.05,17.1v2.846H3.625V17.324H4.675v2.625h6.4V17.324ZM4.2,7.875a3.675,3.675,0,0,0,7.35,0V7.238A3.64,3.64,0,0,1,9.319,5.6l-.368.368a4.689,4.689,0,0,1-3.34,1.383H4.2ZM3.675,5.25V6.3H5.611a3.653,3.653,0,0,0,2.6-1.076l.87-.87a.526.526,0,0,1,.841.137l.178.358a2.611,2.611,0,0,0,1.976,1.426V5.25a4.2,4.2,0,0,0-8.4,0Z" transform="translate(120 160)" />
  </g>
</svg>
