<svg xmlns="http://www.w3.org/2000/svg" width="16" height="16" fill="currentColor" viewBox="0 0 16 16">
              <path id="meeting-room_1_" data-name="meeting-room (1)" d="M14.125,3.75A1.875,1.875,0,1,0,12.25,1.875,1.877,1.877,0,0,0,14.125,3.75Zm0-2.5a.625.625,0,1,1-.625.625A.626.626,0,0,1,14.125,1.25ZM1.875,3.75A1.875,1.875,0,1,0,0,1.875,1.877,1.877,0,0,0,1.875,3.75Zm0-2.5a.625.625,0,1,1-.625.625A.626.626,0,0,1,1.875,1.25Zm12.26,3.094h-.009c-1.294,0-1.784.942-2.093,1.864-.105.314-.333,1-.483,1.449h-.737V6.219A1.877,1.877,0,0,0,8.938,4.344H7.063A1.877,1.877,0,0,0,5.188,6.219V7.656H4.451c-.15-.45-.378-1.135-.483-1.449-.309-.922-.8-1.864-2.093-1.864H1.865A1.877,1.877,0,0,0,0,6.219V9.625a1.878,1.878,0,0,0,1.25,1.767v.014l.048,0a1.861,1.861,0,0,0,.214.056.625.625,0,0,1,.364.567V16h1.25V12.031a1.868,1.868,0,0,0-.077-.531h.733a.626.626,0,0,1,.625.625V16h1.25V12.125A1.877,1.877,0,0,0,3.781,10.25H1.875l-.048,0a1.861,1.861,0,0,0-.214-.056.625.625,0,0,1-.364-.567V6.219a.625.625,0,0,1,.62-.625c.282,0,.573,0,.913,1.011.162.484.62,1.86.625,1.874l.142.428h8.9l.142-.428c0-.014.462-1.389.625-1.874.339-1.013.63-1.012.913-1.011a.625.625,0,0,1,.62.625V9.625a.625.625,0,0,1-.364.567,1.861,1.861,0,0,0-.214.056l-.048,0H12.25a1.877,1.877,0,0,0-1.875,1.875V16h1.25V12.125a.626.626,0,0,1,.625-.625h.7a1.868,1.868,0,0,0-.077.531V16h1.25V12.031a.625.625,0,0,1,.364-.567,1.861,1.861,0,0,0,.214-.056l.048,0v-.014A1.878,1.878,0,0,0,16,9.625V6.219a1.877,1.877,0,0,0-1.865-1.875Zm-7.7,1.875a.626.626,0,0,1,.625-.625H8.937a.626.626,0,0,1,.625.625V7.656H6.437ZM8,3.75A1.875,1.875,0,1,0,6.125,1.875,1.877,1.877,0,0,0,8,3.75Zm0-2.5a.625.625,0,1,1-.625.625A.626.626,0,0,1,8,1.25Zm0,0"></path>
            </svg>