<svg xmlns="http://www.w3.org/2000/svg" width="15.376" height="21" fill="currentColor" viewBox="0 0 15.376 21">
  <g id="_476657" data-name="476657" transform="translate(-53.734)">
    <g id="Group_9892" data-name="Group 9892" transform="translate(53.734)">
      <g id="Group_9891" data-name="Group 9891">
        <path id="Path_17587" data-name="Path 17587" d="M183.622,12.263a.658.658,0,0,0-.559-.312h-2.154V10.666a2.053,2.053,0,0,0-1.141-1.846L178.121,8a.045.045,0,0,1-.025-.041V6.985c0-.008,0-.016,0-.024A3.467,3.467,0,0,0,179.5,4.173V2.767A2.77,2.77,0,0,0,176.736,0h-1.406a2.77,2.77,0,0,0-2.767,2.767V4.173a3.467,3.467,0,0,0,1.407,2.788c0,.008,0,.016,0,.024v.972a.045.045,0,0,1-.025.041L172.3,8.82a2.052,2.052,0,0,0-1.141,1.846v1.285H169a.658.658,0,0,0-.588.952l1.406,2.812a.658.658,0,0,0,.588.364h.748v4.263a.658.658,0,0,0,1.316,0V16.079h7.121v4.263a.658.658,0,0,0,1.316,0V16.079h.748a.658.658,0,0,0,.588-.364l1.406-2.812A.657.657,0,0,0,183.622,12.263Zm-9.744-8.091V2.767a1.453,1.453,0,0,1,1.451-1.451h1.406a1.453,1.453,0,0,1,1.451,1.451V4.173a2.154,2.154,0,0,1-4.309,0Zm3.085,4.466-.9.9a.045.045,0,0,1-.064,0l-.9-.9a1.359,1.359,0,0,0,.183-.682v-.4a3.447,3.447,0,0,0,1.5,0v.4A1.359,1.359,0,0,0,176.964,8.639Zm-4.491,2.027h0a.745.745,0,0,1,.414-.669l1.142-.571,1.042,1.042a1.362,1.362,0,0,0,1.924,0l1.042-1.042,1.142.571a.744.744,0,0,1,.414.669v1.285h-7.121Zm8.778,4.1H170.815l-.748-1.5H182Z" transform="translate(-168.345)" />
      </g>
    </g>
    <g id="Group_9894" data-name="Group 9894" transform="translate(59.358 17.575)">
      <g id="Group_9893" data-name="Group 9893">
        <path id="Path_17588" data-name="Path 17588" d="M235.943,200.4h-2.812a.658.658,0,0,0,0,1.315h2.812a.658.658,0,1,0,0-1.315Z" transform="translate(-232.473 -200.403)"/>
      </g>
    </g>
  </g>
</svg>
