<svg id="Icon_ionic-ios-checkmark-circle-outline" data-name="Icon ionic-ios-checkmark-circle-outline" xmlns="http://www.w3.org/2000/svg" width="18" height="18" viewBox="0 0 18 18">
  <path id="Path_17551" data-name="Path 17551" d="M19.7,13.041l-.762-.783a.164.164,0,0,0-.121-.052h0a.157.157,0,0,0-.121.052L13.42,17.576,11.5,15.655a.167.167,0,0,0-.242,0l-.77.77a.172.172,0,0,0,0,.247l2.423,2.423a.766.766,0,0,0,.506.247.8.8,0,0,0,.5-.238h0l5.785-5.815A.185.185,0,0,0,19.7,13.041Z" transform="translate(-6.09 -6.772)" fill="#053892"/>
  <path id="Path_17552" data-name="Path 17552" d="M12.375,4.587a7.785,7.785,0,1,1-5.508,2.28,7.737,7.737,0,0,1,5.508-2.28m0-1.212a9,9,0,1,0,9,9,9,9,0,0,0-9-9Z" transform="translate(-3.375 -3.375)" fill="#053892"/>
</svg>
