<?xml version="1.0" encoding="utf-8"?>
<!-- Generator: Adobe Illustrator 23.1.0, SVG Export Plug-In . SVG Version: 6.00 Build 0)  -->
<svg version="1.1" id="Layer_1" xmlns="http://www.w3.org/2000/svg" xmlns:xlink="http://www.w3.org/1999/xlink" x="0px" y="0px"
	 viewBox="0 0 283.5 283.5" style="enable-background:new 0 0 283.5 283.5;" xml:space="preserve">
<style type="text/css">
	.st0{fill:#F9D7CC;}
</style>
<path class="st0" d="M281.4,112.3c-0.7,2.9-1,5-1.7,7c-15.2,41.9-30.4,83.8-45.6,125.6c-2.8,7.8-6.1,10.1-14.5,10.1
	c-67.3,0-134.6,0-201.9,0.1c-4.8,0-6.4-1.6-5.8-6c0.4-2.4,0.8-4.9,1.7-7.2c16.7-41.5,33.5-82.9,50.1-124.4c1.5-3.8,3.4-5.2,7.7-5.2
	c68,0.1,135.9,0.1,203.9,0.1C276.9,112.3,278.6,112.3,281.4,112.3z"/>
<path class="st0" d="M2.6,230.5c0-1.4,0-2.9,0-4.3c0.1-60.5,0.1-120.9,0.2-181.4c0-11.4,4.7-16.1,16.1-16.1
	c26.2,0,52.3,0.1,78.5-0.1c3.4,0,5.5,1,7.4,3.8c5.6,8.2,11.7,16.2,17.4,24.4c2.3,3.4,4.9,4.7,9,4.7c34.5-0.2,69,0.3,103.5-0.3
	C250,61,253.8,67,253,80.2c-0.4,7-0.1,13.9-0.1,21.7c-2.5,0-4.6,0-6.6,0c-60.5,0-120.9,0-181.4,0c-9.9,0-12.6,1.9-16.2,11.3
	c-14.5,37.7-29,75.4-43.5,113.1c-0.6,1.5-1.2,2.9-1.9,4.4C3,230.6,2.8,230.6,2.6,230.5z"/>
</svg>
